<?xml version="1.0" encoding="utf-8"?>
<!-- Generator: Adobe Illustrator 20.1.0, SVG Export Plug-In . SVG Version: 6.00 Build 0)  -->
<svg version="1.1" id="Layer_1" xmlns="http://www.w3.org/2000/svg" xmlns:xlink="http://www.w3.org/1999/xlink" x="0px" y="0px"
	 viewBox="0 0 641 335" style="enable-background:new 0 0 641 335;" xml:space="preserve">
<circle class="st0" cx="320.7" cy="166.7" r="48"/>
<circle class="st0" cx="129" cy="70.1" r="48"/>
<circle class="st0" cx="132" cy="264.9" r="48"/>
<line class="st0" x1="63" y1="0.6" x2="63" y2="334.6"/>
<g>
	<line class="st0" x1="320.7" y1="0.5" x2="320.8" y2="334.5"/>
	<line class="st0" x1="224.6" y1="0.5" x2="224.6" y2="334.5"/>
	<line class="st0" x1="416.9" y1="0.5" x2="416.9" y2="334.5"/>
</g>
<path class="st0" d="M572.5,334.5h-504c-37.4,0-68-30.6-68-68v-198c0-37.4,30.6-68,68-68h504c37.4,0,68,30.6,68,68v198
	C640.5,303.9,609.9,334.5,572.5,334.5z"/>
<line class="st0" x1="575" y1="0.6" x2="575" y2="334.6"/>
<path class="st0" d="M63.1,132.8c19.7,0,35.7,16,35.7,35.8s-16,35.8-35.7,35.8"/>
<path class="st0" d="M574.8,132.8c-19.7,0-35.8,16-35.8,35.8s16,35.8,35.8,35.8"/>
<circle class="st0" cx="506" cy="70.1" r="48"/>
<circle class="st0" cx="509" cy="264.9" r="48"/>
</svg>
