<?xml version="1.0" encoding="utf-8"?>
<!-- Generator: Adobe Illustrator 20.1.0, SVG Export Plug-In . SVG Version: 6.00 Build 0)  -->
<svg version="1.1" id="Layer_1" xmlns="http://www.w3.org/2000/svg" xmlns:xlink="http://www.w3.org/1999/xlink" x="0px" y="0px"
	 viewBox="0 0 45 45" style="enable-background:new 0 0 45 45;" xml:space="preserve">
<style type="text/css">
	.st0{fill:#231F20;}
</style>
<g>
	<path class="st0" d="M6.4,41.3v-7.2c-2.5-0.3-4.5-2.4-4.5-4.9V9.1c0-2.7,2.2-5,5-5h31.2c2.7,0,5,2.2,5,5v20.1c0,2.7-2.2,5-5,5h-21
		L6.4,41.3z M6.9,5.1c-2.2,0-4,1.8-4,4v20.1c0,2.2,1.8,4,4,4h0.5v6.3l9.5-6.3h21.3c2.2,0,4-1.8,4-4V9.1c0-2.2-1.8-4-4-4H6.9z"/>
	<g>
		<rect x="8.8" y="13.5" class="st0" width="27.4" height="1"/>
		<rect x="8.8" y="19" class="st0" width="27.4" height="1"/>
		<rect x="8.8" y="24.5" class="st0" width="27.4" height="1"/>
	</g>
</g>
</svg>
