<svg xmlns="http://www.w3.org/2000/svg" viewBox="0 0 25 25">
<path d="M23.8,20l-1-1.5c-0.4-0.6-1-0.9-1.6-0.9h-3.8c-0.2,0-0.3-0.1-0.4-0.2l-2.9-4.4l4.3-7.2c0.4-0.7,0.2-1.6-0.5-2
	c-0.2-0.1-0.4-0.2-0.6-0.1c-0.5,0.1-0.9,0.7-1.3,1.3l-3.5,5.4L9,4.8C8.6,4.2,8.2,3.6,7.7,3.5C7.4,3.5,7.2,3.5,7,3.6
	C6.3,4.1,6.1,5,6.6,5.7l4.3,7.2l-2.9,4.4c-0.1,0.1-0.2,0.2-0.4,0.2H3.8c-0.7,0-1.3,0.3-1.6,0.9l-1,1.5c-0.2,0.3-0.2,0.7,0,1
	c0.2,0.3,0.5,0.5,0.9,0.5h6.2c0.5,0,1-0.3,1.2-0.7l3-5.1l3,5.1c0.3,0.4,0.7,0.7,1.2,0.7H23c0.4,0,0.7-0.2,0.9-0.5
	C24.1,20.7,24,20.3,23.8,20z M7.4,5.2C7.3,5,7.3,4.7,7.5,4.5c0.1,0.1,0.3,0.4,0.6,0.9l3.8,5.8l-0.5,0.7L7.4,5.2z M8.6,20.3
	c-0.1,0.1-0.2,0.2-0.4,0.2l-6.2,0L3,19c0.2-0.3,0.5-0.4,0.8-0.4h3.8c0.5,0,1-0.3,1.2-0.7l8.1-12.5c0.3-0.5,0.5-0.7,0.6-0.8
	c0.2,0.2,0.2,0.4,0.1,0.6L8.6,20.3z M16.8,20.5c-0.2,0-0.3-0.1-0.4-0.2l-3.3-5.5l0,0l0.5-0.9l2.6,4c0.3,0.4,0.7,0.7,1.2,0.7h3.8
	c0.3,0,0.6,0.2,0.8,0.4l1,1.5H16.8z"/>
</svg>
