<?xml version="1.0" encoding="utf-8"?>
<!-- Generator: Adobe Illustrator 20.1.0, SVG Export Plug-In . SVG Version: 6.00 Build 0)  -->
<svg version="1.1" id="Layer_1" xmlns="http://www.w3.org/2000/svg" xmlns:xlink="http://www.w3.org/1999/xlink" x="0px" y="0px"
	 viewBox="0 0 45 45" style="enable-background:new 0 0 45 45;" xml:space="preserve">
<g>
	<path d="M33.3,10.7L34.5,9l-2.6-1.8L30.7,9c-2-1-4.3-1.7-6.7-1.9V5.5h1.5v-2h-6v2H21v1.6C11.8,7.8,4.5,15.6,4.5,25
		c0,9.9,8.1,18,18,18s18-8.1,18-18C40.5,19.1,37.7,14,33.3,10.7z M22.5,42c-9.4,0-17-7.6-17-17s7.6-17,17-17s17,7.6,17,17
		S31.9,42,22.5,42z"/>
	<path d="M22.5,10.1V25l11.1,10c2.4-2.6,3.8-6.1,3.8-10C37.4,16.7,30.8,10.1,22.5,10.1z"/>
</g>
</svg>
