<svg xmlns="http://www.w3.org/2000/svg" viewBox="0 0 25 25">
  <path d="M13.5 5.8H9.9c-.3 0-.7 0-1 .1h-.1c-1.1.2-2 .6-2.9 1.1-.4-.5-1-.7-1.7-.7C3 6.3 2 7.3 2 8.6c0 .9.5 1.7 1.3 2v.1c-.1.2-.1.4-.1.5v.2c-.1.2-.2.4-.2.6V13.4c.2 1.4.9 2.7 1.9 3.7C6 18.3 7.5 19 9 19.1h1.1c2.6-.2 4.9-1.9 5.8-4.4.4-1 .5-2.1.4-3.1 0-.2.1-.5.3-.5L23 9.6V5.8h-9.5zm-1 1v1.8h-1.9V6.8h1.9zM3 8.6c0-.7.6-1.2 1.2-1.2.3 0 .6.1.9.4-.6.5-1.1 1.1-1.4 1.9C3.3 9.4 3 9 3 8.6zm19 .2l-5.6 1.4c-.7.2-1.2.9-1.1 1.6.1.9 0 1.8-.3 2.6-.8 2.1-2.8 3.6-4.9 3.7h-.6c-1 0-1.9-.3-2.7-.8-.4-.2-.7-.5-1.1-.8-1.2-1.2-1.8-2.8-1.6-4.4 0-.3.1-.6.2-.9 0-.1.1-.2.1-.3.4-1.1 1-2 1.9-2.7.2-.2.4-.3.6-.4.1 0 .1-.1.2-.1.2-.1.4-.2.7-.3.1 0 .2-.1.3-.1.2-.2.3-.3.6-.3.3-.1.7-.1 1-.1v1.9c0 .5.4 1 1 1h1.9c.5 0 1-.4 1-1v-2H22v2z"/>
  <path d="M9.5 10.3c-.6 0-1.2.2-1.7.6-.5.5-.8 1.2-.8 1.9 0 1.4 1.1 2.5 2.5 2.5s2.5-1.1 2.5-2.5-1.1-2.5-2.5-2.5zm0 4c-.8 0-1.5-.7-1.5-1.5 0-.4.2-.8.5-1.1.3-.2.6-.4 1-.4.8 0 1.5.7 1.5 1.5s-.7 1.5-1.5 1.5z"/>
</svg>
