<svg xmlns="http://www.w3.org/2000/svg" viewBox="0 0 25 25">
  <path d="M24 6.5l-6.7-3.3c-.2-.2-.3-.2-.5-.2H8.2c-.2 0-.3 0-.5.1L1 6.5c-.4.2-.6.6-.5 1.1l.7 2.7c.1.5.6.8 1.1.7l4.3-.7V21c0 .5.4 1 1 1h9.7c.5 0 1-.4 1-1V10.4l4.3.7c.5.1 1-.2 1.1-.7l.7-2.7c.2-.6 0-1-.4-1.2zM2.2 10.1l-.7-2.8 1.3-.7.6 3.2-1.2.3zM7.7 21v-2h9.7v2H7.7zm10-11.4c-.2.2-.4.5-.4.8v7.7H7.7v-7.7c0-.3-.1-.6-.4-.8-.2-.2-.4-.2-.6-.2h-.2l-2.1.3-.7-3.5L8.2 4h8.7l4.4 2.2-.7 3.5-2.1-.3c-.3-.1-.6 0-.8.2zm5.1.5l-1.3-.2.6-3.2 1.3.7-.6 2.7z"/>
  <path d="M12.7 11.8c-.2 0-.3 0-.5.1-.1.1-.3.1-.4.2l.2-1.3h1.5l.1.4h.7V9.9h-3.2l-.4 3.1 1 .1c0-.1.1-.2.2-.3.1-.1.3-.1.5-.1.3 0 .5.1.6.3.1.2.2.5.2.8 0 .3-.1.5-.2.7-.1.2-.3.3-.6.3-.2 0-.4-.1-.6-.2-.1-.1-.2-.3-.2-.6h-.9c0 .5.2.9.5 1.2.4.3.8.4 1.3.4.6 0 1.1-.2 1.4-.5.3-.4.5-.8.5-1.4 0-.6-.1-1.1-.4-1.4-.3-.3-.8-.5-1.3-.5zM9 6.1h6.9v1H9z"/>
</svg>
