<?xml version="1.0" encoding="utf-8"?>
<!-- Generator: Adobe Illustrator 20.1.0, SVG Export Plug-In . SVG Version: 6.00 Build 0)  -->
<svg version="1.1" id="Layer_1" xmlns="http://www.w3.org/2000/svg" xmlns:xlink="http://www.w3.org/1999/xlink" x="0px" y="0px"
	 viewBox="0 0 25 25" style="enable-background:new 0 0 25 25;" xml:space="preserve">
<path d="M12.5,1.5c-6.1,0-11,4.9-11,11s4.9,11,11,11s11-4.9,11-11S18.6,1.5,12.5,1.5z M2.5,12.5c0-5.5,4.5-10,10-10
	c4.2,0,7.9,2.7,9.3,6.4l-2.9,3.9l-1.7-1.3c0.1-0.2,0.1-0.5,0.1-0.7c-0.1-1.2-1.2-2-2.3-1.9c-1.2,0.1-2,1.2-1.9,2.3v0
	c0,0.3,0.1,0.6,0.3,0.8l-2.4,3.6L7,10.7l-4.2,4.1C2.6,14.1,2.5,13.3,2.5,12.5z M16.4,10.9c0.1,0.7-0.4,1.3-1.1,1.4s-1.3-0.4-1.4-1.1
	c-0.1-0.7,0.4-1.3,1.1-1.4S16.4,10.2,16.4,10.9z M12.5,22.5c-4.3,0-8-2.7-9.4-6.6l3.8-3.7l4.1,5.1l3-4.5c0.3,0.2,0.7,0.3,1.1,0.3
	c0.1,0,0.1,0,0.2,0c0.5-0.1,1-0.3,1.4-0.7l2.4,1.8l3.1-4.1c0.2,0.8,0.3,1.6,0.3,2.4C22.5,18,18,22.5,12.5,22.5z"/>
</svg>
