<?xml version="1.0" encoding="utf-8"?>
<!-- Generator: Adobe Illustrator 20.1.0, SVG Export Plug-In . SVG Version: 6.00 Build 0)  -->
<svg version="1.1" id="Layer_1" xmlns="http://www.w3.org/2000/svg" xmlns:xlink="http://www.w3.org/1999/xlink" x="0px" y="0px"
	 viewBox="0 0 25 25" style="enable-background:new 0 0 25 25;" xml:space="preserve">
<path d="M17,3.3c-4.8-0.8-10.4,0.2-13,2.4C3,6.6,2.5,7.6,2.5,8.8v2.6c0,0.5,0.3,0.9,0.8,1l3.2,0.8l0.9,3.4c0.1,0.4,0.5,0.7,1,0.7
	h0.3C10,20.4,11.4,22,13,22c0,0,0,0,0,0c2.5,0,4.3-3.9,4.3-4c0,0,0-0.1,0-0.1l3.2-0.5c0.4-0.1,0.7-0.4,0.8-0.8l0.9-4.7
	C22.5,11.5,23.4,4.3,17,3.3z M13,21c-1.1,0-2.2-1.3-3.3-3.7h0.7c0.3,0,0.6-0.2,0.8-0.5l3.2,0.4c0,0.3,0.1,0.5,0.3,0.7
	c0.2,0.2,0.4,0.2,0.6,0.2c0.1,0,0.1,0,0.2,0l0.6-0.1C15.7,19.2,14.4,21,13,21z M11.5,12.3l3,0v3.9l-3-0.4L11.5,12.3z M20.5,16.3
	l-5.1,0.8v-4.9c0-0.6-0.4-1-1-1h-3c-0.6,0-1,0.4-1,1v4h0l-2.1,0l-0.9-3.2c0-0.4-0.3-0.8-0.8-0.9l-3.2-0.8v-1.1H6v-1H3.5V8.8
	c0-0.8,0.4-1.6,1.2-2.3c2.4-2,7.7-3,12.1-2.2c2.7,0.5,3.9,2.3,4.3,4H18v1h3.5c0.1,0.4,0.1,0.7,0.1,1H18v1h3.5c0,0.2,0,0.4,0,0.4
	l-0.1,0.6H18v1h3.2L20.5,16.3z"/>
</svg>
